<svg xmlns="http://www.w3.org/2000/svg" width="1283" height="645" viewBox="0 0 513 258" font-family="Arial, sans-serif">
  <defs>
    <marker id="ah" viewBox="0 0 8 6" refX="8" refY="3"
      markerWidth="4" markerHeight="3" orient="auto">
      <path d="M0.5,0.5 L7,3 L0.5,5.5" fill="none" stroke="#94A3B8"
        stroke-width="1.2" stroke-linejoin="round" stroke-linecap="round"/>
    </marker>
    <filter id="shadow" x="-6%" y="-8%" width="112%" height="128%">
      <feDropShadow dx="0" dy="0.5" stdDeviation="0.8"
        flood-color="#000" flood-opacity="0.05"/>
    </filter>
  </defs>
  <rect width="513" height="258" fill="#F8F9FB" rx="3"/>
  <text x="257" y="11" text-anchor="middle" font-size="6" font-weight="700" fill="#1E293B">Prediction Market NFT Bridge Architecture</text>
  <rect x="182" y="16" width="150" height="10" rx="3" fill="#fff" stroke="#E2E5EA" stroke-width="0.4"/>
  <rect x="187" y="18.5" width="5" height="5" rx="2.5" fill="#fff" stroke="#E2E5EA" stroke-width="0.4"/>
  <text x="195" y="22.5" font-size="3.5" fill="#1E293B">Actor</text>
  <rect x="227" y="18.5" width="5" height="5" rx="1.5" fill="#fff" stroke="#E2E5EA" stroke-width="0.4"/>
  <rect x="228" y="19.5" width="0.8" height="3" rx="0.4" fill="#3B82F6"/>
  <text x="235" y="22.5" font-size="3.5" fill="#1E293B">Protocol</text>
  <rect x="275" y="18.5" width="5" height="5" rx="1.5" fill="#fff" stroke="#E2E5EA" stroke-width="0.4"/>
  <rect x="276" y="19.5" width="0.8" height="3" rx="0.4" fill="#F59E0B"/>
  <text x="283" y="22.5" font-size="3.5" fill="#1E293B">External</text>
  <rect x="20.0" y="84.0" width="473.2" height="40.0" rx="5" fill="#EDEEF2"/>
  <text x="490.2" y="89.0" text-anchor="end" font-size="3.5" fill="#94A3B8" font-weight="500">BSC Chain</text>
  <rect x="20.0" y="208.0" width="473.2" height="40.0" rx="5" fill="#EDEEF2"/>
  <text x="490.2" y="213.0" text-anchor="end" font-size="3.5" fill="#94A3B8" font-weight="500">Polygon Chain</text>
  <path d="M84.6,46.0 C84.6,70.0 190.0,70.0 190.0,94.0" fill="none" stroke="#94A3B8" stroke-width="0.5" marker-end="url(#ah)"/>
  <path d="M84.6,46.0 C84.6,70.0 78.4,70.0 78.4,94.0" fill="none" stroke="#94A3B8" stroke-width="0.5" marker-end="url(#ah)"/>
  <path d="M84.6,46.0 Q138.8,104.0 84.2,94.0" fill="none" stroke="#94A3B8" stroke-width="0.5" marker-end="url(#ah)"/>
  <path d="M84.2,94.0 L134.8,104.0 L67.8,166.0 L89.5,156.0" fill="none" stroke="#94A3B8" stroke-width="0.5" marker-end="url(#ah)"/>
  <path d="M89.5,156.0 Q65.8,166.0 94.9,218.0" fill="none" stroke="#94A3B8" stroke-width="0.5" marker-end="url(#ah)"/>
  <path d="M166.2,46.0 C166.2,70.0 190.0,70.0 190.0,94.0" fill="none" stroke="#94A3B8" stroke-width="0.5" marker-end="url(#ah)"/>
  <path d="M166.2,46.0 C166.2,70.0 140.3,70.0 140.3,94.0" fill="none" stroke="#94A3B8" stroke-width="0.5" marker-end="url(#ah)"/>
  <path d="M140.3,94.0 Q163.4,166.0 117.6,156.0" fill="none" stroke="#94A3B8" stroke-width="0.5" marker-end="url(#ah)"/>
  <path d="M117.6,156.0 Q63.8,166.0 94.9,218.0" fill="none" stroke="#94A3B8" stroke-width="0.5" marker-end="url(#ah)"/>
  <path d="M190.0,114.0 C190.0,135.0 114.6,135.0 114.6,156.0" fill="none" stroke="#94A3B8" stroke-width="0.5" marker-end="url(#ah)"/>
  <path d="M78.4,114.0 C78.4,135.0 114.6,135.0 114.6,156.0" fill="none" stroke="#94A3B8" stroke-width="0.5" marker-end="url(#ah)"/>
  <path d="M114.6,176.0 C114.6,197.0 94.9,197.0 94.9,218.0" fill="none" stroke="#94A3B8" stroke-width="0.5" marker-end="url(#ah)"/>
  <path d="M114.6,156.0 C114.6,135.0 190.0,135.0 190.0,114.0" fill="none" stroke="#94A3B8" stroke-width="0.5" marker-end="url(#ah)"/>
  <path d="M138.5,236.0 C145.1,254.0 153.9,254.0 160.5,238.0" fill="none" stroke="#94A3B8" stroke-width="0.5" marker-end="url(#ah)"/>
  <path d="M231.2,112.0 C237.8,134.0 246.6,134.0 253.2,114.0" fill="none" stroke="#94A3B8" stroke-width="0.5" marker-end="url(#ah)"/>
  <path d="M126.8,112.0 C200.4,126.0 298.4,126.0 372.0,114.0" fill="none" stroke="#94A3B8" stroke-width="0.5" marker-end="url(#ah)"/>
  <g filter="url(#shadow)">
    <rect x="53.0" y="32.0" width="63.2" height="14" rx="7" fill="#fff" stroke="#E2E5EA" stroke-width="0.5"/>
    <text x="84.6" y="40.8" text-anchor="middle" font-size="4.8" font-weight="600" fill="#1E293B">User</text>
  </g>
  <g filter="url(#shadow)">
    <rect x="138.2" y="32.0" width="56.0" height="14" rx="7" fill="#fff" stroke="#E2E5EA" stroke-width="0.5"/>
    <text x="166.2" y="40.8" text-anchor="middle" font-size="4.8" font-weight="600" fill="#1E293B">Owner</text>
  </g>
  <g filter="url(#shadow)">
    <rect x="148.8" y="94.0" width="82.4" height="20" rx="3" fill="#fff" stroke="#E2E5EA" stroke-width="0.5"/>
    <rect x="151.8" y="97.0" width="1.4" height="14" rx="0.6" fill="#3B82F6"/>
    <text x="190.0" y="103.5" text-anchor="middle" font-size="4.8" font-weight="600" fill="#1E293B">OpinionEscrow</text>
    <text x="190.0" y="108.5" text-anchor="middle" font-size="3.5" fill="#64748B">BSC Lock/Unlock</text>
  </g>
  <g filter="url(#shadow)">
    <rect x="30.0" y="94.0" width="96.8" height="20" rx="3" fill="#fff" stroke="#E2E5EA" stroke-width="0.5"/>
    <rect x="33.0" y="97.0" width="1.4" height="14" rx="0.6" fill="#3B82F6"/>
    <text x="78.4" y="103.5" text-anchor="middle" font-size="4.8" font-weight="600" fill="#1E293B">PredictFunEscrow</text>
    <text x="78.4" y="108.5" text-anchor="middle" font-size="3.5" fill="#64748B">BSC Lock/Unlock</text>
  </g>
  <g filter="url(#shadow)">
    <rect x="75.8" y="156.0" width="77.6" height="20" rx="3" fill="#fff" stroke="#E2E5EA" stroke-width="0.5"/>
    <rect x="78.8" y="159.0" width="1.4" height="14" rx="0.6" fill="#F59E0B"/>
    <text x="114.6" y="165.5" text-anchor="middle" font-size="4.8" font-weight="600" fill="#1E293B">LayerZero V2</text>
    <text x="114.6" y="170.5" text-anchor="middle" font-size="3.5" fill="#64748B">Messaging</text>
  </g>
  <g filter="url(#shadow)">
    <rect x="51.3" y="218.0" width="87.2" height="20" rx="3" fill="#fff" stroke="#E2E5EA" stroke-width="0.5"/>
    <rect x="54.3" y="221.0" width="1.4" height="14" rx="0.6" fill="#3B82F6"/>
    <text x="94.9" y="227.5" text-anchor="middle" font-size="4.8" font-weight="600" fill="#1E293B">BridgeReceiver</text>
    <text x="94.9" y="232.5" text-anchor="middle" font-size="3.5" fill="#64748B">Polygon Mint/Burn</text>
  </g>
  <g filter="url(#shadow)">
    <rect x="160.5" y="218.0" width="125.6" height="20" rx="3" fill="#fff" stroke="#E2E5EA" stroke-width="0.5"/>
    <rect x="163.5" y="221.0" width="1.4" height="14" rx="0.6" fill="#3B82F6"/>
    <text x="223.3" y="227.5" text-anchor="middle" font-size="4.8" font-weight="600" fill="#1E293B">WrappedPredictionToken</text>
    <text x="223.3" y="232.5" text-anchor="middle" font-size="3.5" fill="#64748B">ERC-1155</text>
  </g>
  <g filter="url(#shadow)">
    <rect x="253.2" y="94.0" width="96.8" height="20" rx="3" fill="#fff" stroke="#E2E5EA" stroke-width="0.5"/>
    <rect x="256.2" y="97.0" width="1.4" height="14" rx="0.6" fill="#F59E0B"/>
    <text x="301.6" y="103.5" text-anchor="middle" font-size="4.8" font-weight="600" fill="#1E293B">Opinion ERC-1155</text>
    <text x="301.6" y="108.5" text-anchor="middle" font-size="3.5" fill="#64748B">BSC Shares</text>
  </g>
  <g filter="url(#shadow)">
    <rect x="372.0" y="94.0" width="111.2" height="20" rx="3" fill="#fff" stroke="#E2E5EA" stroke-width="0.5"/>
    <rect x="375.0" y="97.0" width="1.4" height="14" rx="0.6" fill="#F59E0B"/>
    <text x="427.6" y="103.5" text-anchor="middle" font-size="4.8" font-weight="600" fill="#1E293B">PredictFun ERC-1155</text>
    <text x="427.6" y="108.5" text-anchor="middle" font-size="3.5" fill="#64748B">BSC Shares</text>
  </g>
  <rect x="122.1" y="65.0" width="30.4" height="6.0" rx="1" fill="#F8F9FB"/>
  <text x="137.3" y="70.0" font-size="4" fill="#1E293B" font-weight="500" text-anchor="middle">lock shares</text>
  <rect x="62.7" y="65.0" width="37.6" height="6.0" rx="1" fill="#F8F9FB"/>
  <text x="81.5" y="70.0" font-size="4" fill="#1E293B" font-weight="500" text-anchor="middle">lock PF shares</text>
  <rect x="58.8" y="179.8" width="30.4" height="6.0" rx="1" fill="#F8F9FB"/>
  <text x="74.0" y="184.8" font-size="4" fill="#1E293B" font-weight="500" text-anchor="middle">bridge back</text>
  <rect x="161.7" y="65.0" width="32.8" height="6.0" rx="1" fill="#F8F9FB"/>
  <text x="178.1" y="70.0" font-size="4" fill="#1E293B" font-weight="500" text-anchor="middle">admin config</text>
  <rect x="29.3" y="163.5" width="40.0" height="6.0" rx="1" fill="#F8F9FB"/>
  <text x="49.3" y="168.5" font-size="4" fill="#1E293B" font-weight="500" text-anchor="middle">admin config BR</text>
  <rect x="134.7" y="130.0" width="35.2" height="6.0" rx="1" fill="#F8F9FB"/>
  <text x="152.3" y="135.0" font-size="4" fill="#1E293B" font-weight="500" text-anchor="middle">send lock msg</text>
  <rect x="81.3" y="130.0" width="30.4" height="6.0" rx="1" fill="#F8F9FB"/>
  <text x="96.5" y="135.0" font-size="4" fill="#1E293B" font-weight="500" text-anchor="middle">send PF msg</text>
  <rect x="89.5" y="192.0" width="30.4" height="6.0" rx="1" fill="#F8F9FB"/>
  <text x="104.7" y="197.0" font-size="4" fill="#1E293B" font-weight="500" text-anchor="middle">deliver msg</text>
  <rect x="133.5" y="122.0" width="37.6" height="6.0" rx="1" fill="#F8F9FB"/>
  <text x="152.3" y="127.0" font-size="4" fill="#1E293B" font-weight="500" text-anchor="middle">deliver unlock</text>
  <rect x="136.7" y="253.0" width="25.6" height="6.0" rx="1" fill="#F8F9FB"/>
  <text x="149.5" y="258.0" font-size="4" fill="#1E293B" font-weight="500" text-anchor="middle">mint/burn</text>
  <rect x="222.2" y="133.0" width="40.0" height="6.0" rx="1" fill="#F8F9FB"/>
  <text x="242.2" y="138.0" font-size="4" fill="#1E293B" font-weight="500" text-anchor="middle">transfer shares</text>
  <rect x="234.2" y="125.0" width="30.4" height="6.0" rx="1" fill="#F8F9FB"/>
  <text x="249.4" y="130.0" font-size="4" fill="#1E293B" font-weight="500" text-anchor="middle">transfer PF</text>
</svg>