<svg xmlns="http://www.w3.org/2000/svg" width="767" height="645" viewBox="0 0 307 258" font-family="Arial, sans-serif">
  <defs>
    <marker id="ah" viewBox="0 0 8 6" refX="8" refY="3"
      markerWidth="4" markerHeight="3" orient="auto">
      <path d="M0.5,0.5 L7,3 L0.5,5.5" fill="none" stroke="#94A3B8"
        stroke-width="1.2" stroke-linejoin="round" stroke-linecap="round"/>
    </marker>
    <filter id="shadow" x="-6%" y="-8%" width="112%" height="128%">
      <feDropShadow dx="0" dy="0.5" stdDeviation="0.8"
        flood-color="#000" flood-opacity="0.05"/>
    </filter>
  </defs>
  <rect width="307" height="258" fill="#F8F9FB" rx="3"/>
  <text x="153" y="11" text-anchor="middle" font-size="6" font-weight="700" fill="#1E293B">Opinion NFT Bridge Architecture</text>
  <rect x="78" y="16" width="150" height="10" rx="3" fill="#fff" stroke="#E2E5EA" stroke-width="0.4"/>
  <rect x="83" y="18.5" width="5" height="5" rx="2.5" fill="#fff" stroke="#E2E5EA" stroke-width="0.4"/>
  <text x="91" y="22.5" font-size="3.5" fill="#1E293B">Actor</text>
  <rect x="123" y="18.5" width="5" height="5" rx="1.5" fill="#fff" stroke="#E2E5EA" stroke-width="0.4"/>
  <rect x="124" y="19.5" width="0.8" height="3" rx="0.4" fill="#3B82F6"/>
  <text x="131" y="22.5" font-size="3.5" fill="#1E293B">Protocol</text>
  <rect x="171" y="18.5" width="5" height="5" rx="1.5" fill="#fff" stroke="#E2E5EA" stroke-width="0.4"/>
  <rect x="172" y="19.5" width="0.8" height="3" rx="0.4" fill="#F59E0B"/>
  <text x="179" y="22.5" font-size="3.5" fill="#1E293B">External</text>
  <rect x="32.0" y="84.0" width="254.8" height="40.0" rx="5" fill="#EDEEF2"/>
  <text x="283.8" y="89.0" text-anchor="end" font-size="3.5" fill="#94A3B8" font-weight="500">BSC Chain</text>
  <rect x="32.0" y="208.0" width="254.8" height="40.0" rx="5" fill="#EDEEF2"/>
  <text x="283.8" y="213.0" text-anchor="end" font-size="3.5" fill="#94A3B8" font-weight="500">Polygon Chain</text>
  <path d="M61.6,46.0 C61.6,70.0 88.7,70.0 88.7,94.0" fill="none" stroke="#94A3B8" stroke-width="0.5" marker-end="url(#ah)"/>
  <path d="M61.6,46.0 Q37.5,104.0 67.5,94.0" fill="none" stroke="#94A3B8" stroke-width="0.5" marker-end="url(#ah)"/>
  <path d="M67.5,94.0 L35.5,104.0 L35.0,166.0 L76.6,156.0" fill="none" stroke="#94A3B8" stroke-width="0.5" marker-end="url(#ah)"/>
  <path d="M76.6,156.0 Q39.0,166.0 85.6,218.0" fill="none" stroke="#94A3B8" stroke-width="0.5" marker-end="url(#ah)"/>
  <path d="M143.2,46.0 C143.2,70.0 88.7,70.0 88.7,94.0" fill="none" stroke="#94A3B8" stroke-width="0.5" marker-end="url(#ah)"/>
  <path d="M143.2,46.0 Q141.9,104.0 123.6,94.0" fill="none" stroke="#94A3B8" stroke-width="0.5" marker-end="url(#ah)"/>
  <path d="M123.6,94.0 L137.9,104.0 L132.6,166.0 L104.6,156.0" fill="none" stroke="#94A3B8" stroke-width="0.5" marker-end="url(#ah)"/>
  <path d="M104.6,156.0 Q134.6,166.0 85.6,218.0" fill="none" stroke="#94A3B8" stroke-width="0.5" marker-end="url(#ah)"/>
  <path d="M88.7,114.0 C88.7,135.0 85.8,135.0 85.8,156.0" fill="none" stroke="#94A3B8" stroke-width="0.5" marker-end="url(#ah)"/>
  <path d="M85.8,176.0 C85.8,197.0 85.6,197.0 85.6,218.0" fill="none" stroke="#94A3B8" stroke-width="0.5" marker-end="url(#ah)"/>
  <path d="M85.8,156.0 C85.8,135.0 88.7,135.0 88.7,114.0" fill="none" stroke="#94A3B8" stroke-width="0.5" marker-end="url(#ah)"/>
  <path d="M129.2,236.0 C135.8,258.0 144.6,258.0 151.2,238.0" fill="none" stroke="#94A3B8" stroke-width="0.5" marker-end="url(#ah)"/>
  <path d="M129.9,112.0 C136.5,126.0 145.3,126.0 151.9,114.0" fill="none" stroke="#94A3B8" stroke-width="0.5" marker-end="url(#ah)"/>
  <g filter="url(#shadow)">
    <rect x="30.0" y="32.0" width="63.2" height="14" rx="7" fill="#fff" stroke="#E2E5EA" stroke-width="0.5"/>
    <text x="61.6" y="40.8" text-anchor="middle" font-size="4.8" font-weight="600" fill="#1E293B">User</text>
  </g>
  <g filter="url(#shadow)">
    <rect x="115.2" y="32.0" width="56.0" height="14" rx="7" fill="#fff" stroke="#E2E5EA" stroke-width="0.5"/>
    <text x="143.2" y="40.8" text-anchor="middle" font-size="4.8" font-weight="600" fill="#1E293B">Owner</text>
  </g>
  <g filter="url(#shadow)">
    <rect x="47.5" y="94.0" width="82.4" height="20" rx="3" fill="#fff" stroke="#E2E5EA" stroke-width="0.5"/>
    <rect x="50.5" y="97.0" width="1.4" height="14" rx="0.6" fill="#3B82F6"/>
    <text x="88.7" y="103.5" text-anchor="middle" font-size="4.8" font-weight="600" fill="#1E293B">OpinionEscrow</text>
    <text x="88.7" y="108.5" text-anchor="middle" font-size="3.5" fill="#64748B">BSC Lock/Unlock</text>
  </g>
  <g filter="url(#shadow)">
    <rect x="47.0" y="156.0" width="77.6" height="20" rx="3" fill="#fff" stroke="#E2E5EA" stroke-width="0.5"/>
    <rect x="50.0" y="159.0" width="1.4" height="14" rx="0.6" fill="#F59E0B"/>
    <text x="85.8" y="165.5" text-anchor="middle" font-size="4.8" font-weight="600" fill="#1E293B">LayerZero V2</text>
    <text x="85.8" y="170.5" text-anchor="middle" font-size="3.5" fill="#64748B">Messaging</text>
  </g>
  <g filter="url(#shadow)">
    <rect x="42.0" y="218.0" width="87.2" height="20" rx="3" fill="#fff" stroke="#E2E5EA" stroke-width="0.5"/>
    <rect x="45.0" y="221.0" width="1.4" height="14" rx="0.6" fill="#3B82F6"/>
    <text x="85.6" y="227.5" text-anchor="middle" font-size="4.8" font-weight="600" fill="#1E293B">BridgeReceiver</text>
    <text x="85.6" y="232.5" text-anchor="middle" font-size="3.5" fill="#64748B">Polygon Mint/Burn</text>
  </g>
  <g filter="url(#shadow)">
    <rect x="151.2" y="218.0" width="125.6" height="20" rx="3" fill="#fff" stroke="#E2E5EA" stroke-width="0.5"/>
    <rect x="154.2" y="221.0" width="1.4" height="14" rx="0.6" fill="#3B82F6"/>
    <text x="214.0" y="227.5" text-anchor="middle" font-size="4.8" font-weight="600" fill="#1E293B">WrappedPredictionToken</text>
    <text x="214.0" y="232.5" text-anchor="middle" font-size="3.5" fill="#64748B">ERC-1155</text>
  </g>
  <g filter="url(#shadow)">
    <rect x="151.9" y="94.0" width="96.8" height="20" rx="3" fill="#fff" stroke="#E2E5EA" stroke-width="0.5"/>
    <rect x="154.9" y="97.0" width="1.4" height="14" rx="0.6" fill="#F59E0B"/>
    <text x="200.3" y="103.5" text-anchor="middle" font-size="4.8" font-weight="600" fill="#1E293B">Opinion ERC-1155</text>
    <text x="200.3" y="108.5" text-anchor="middle" font-size="3.5" fill="#64748B">BSC Shares</text>
  </g>
  <rect x="59.9" y="65.0" width="30.4" height="6.0" rx="1" fill="#F8F9FB"/>
  <text x="75.1" y="70.0" font-size="4" fill="#1E293B" font-weight="500" text-anchor="middle">lock shares</text>
  <rect x="34.1" y="180.5" width="30.4" height="6.0" rx="1" fill="#F8F9FB"/>
  <text x="49.3" y="185.5" font-size="4" fill="#1E293B" font-weight="500" text-anchor="middle">bridge back</text>
  <rect x="99.5" y="65.0" width="32.8" height="6.0" rx="1" fill="#F8F9FB"/>
  <text x="115.9" y="70.0" font-size="4" fill="#1E293B" font-weight="500" text-anchor="middle">admin config</text>
  <rect x="100.9" y="179.5" width="40.0" height="6.0" rx="1" fill="#F8F9FB"/>
  <text x="120.9" y="184.5" font-size="4" fill="#1E293B" font-weight="500" text-anchor="middle">admin config BR</text>
  <rect x="69.6" y="130.0" width="35.2" height="6.0" rx="1" fill="#F8F9FB"/>
  <text x="87.2" y="135.0" font-size="4" fill="#1E293B" font-weight="500" text-anchor="middle">send lock msg</text>
  <rect x="70.5" y="192.0" width="30.4" height="6.0" rx="1" fill="#F8F9FB"/>
  <text x="85.7" y="197.0" font-size="4" fill="#1E293B" font-weight="500" text-anchor="middle">deliver msg</text>
  <rect x="68.4" y="122.0" width="37.6" height="6.0" rx="1" fill="#F8F9FB"/>
  <text x="87.2" y="127.0" font-size="4" fill="#1E293B" font-weight="500" text-anchor="middle">deliver unlock</text>
  <rect x="127.4" y="257.0" width="25.6" height="6.0" rx="1" fill="#F8F9FB"/>
  <text x="140.2" y="262.0" font-size="4" fill="#1E293B" font-weight="500" text-anchor="middle">mint/burn</text>
  <rect x="120.9" y="125.0" width="40.0" height="6.0" rx="1" fill="#F8F9FB"/>
  <text x="140.9" y="130.0" font-size="4" fill="#1E293B" font-weight="500" text-anchor="middle">transfer shares</text>
</svg>